<svg xmlns="http://www.w3.org/2000/svg" width="947" height="1052" viewBox="0 0 947 1052" fill="none">
<path d="M836.795 -58L825.36 -46.5874V-38.174L831.077 -32.4678H819.339L808.504 -23.7551L793.455 -17.1477L776.602 -33.9709L768.476 -42.0815L751.92 -41.1804L732.056 -38.1776L720.622 -24.3571L707.981 -11.7406L692.931 10.4898V27.9114L680.893 42.9323L669.455 54.3484L656.814 54.9468L645.376 48.9378L629.124 57.9496C629.124 57.9496 632.735 73.5688 630.929 71.7665C629.124 69.9641 619.495 59.7519 619.495 59.7519L611.065 69.3657H597.825C597.825 69.3657 589.699 66.6622 593.61 62.7583C597.521 58.8544 602.639 51.9441 602.639 51.9441L591.804 44.1326L573.746 51.9441L561.105 57.9531L555.688 72.9741L553.279 81.3839L556.89 100.608V112.024L546.658 121.638L549.667 98.2071L538.232 94.6024L529.203 103.614L518.968 108.419L523.182 92.198C523.182 92.198 534.621 87.9913 534.621 84.3866C534.621 80.7819 532.212 78.3775 532.212 78.3775L514.756 86.189L492.483 94.5988L487.669 108.416L470.813 116.826H459.375L451.552 124.637L464.193 132.448L465.999 140.858L452.755 152.873V165.489L459.978 170.294L465.999 154.675L470.21 158.28V171.498L480.446 176.905L489.475 185.917L493.686 188.322L484.657 197.333L473.222 196.731L466.598 203.941L461.484 209.049L475.628 215.357V224.369L462.387 220.764L450.949 221.366L435.3 224.971L426.87 240.59L429.882 256.209H414.832L401.588 259.814L393.162 251.404L378.113 249.602V260.416L385.939 268.228V276.637L389.551 285.649L395.571 305.475L394.365 316.891L380.522 309.682L375.104 315.089L362.463 312.685L353.434 306.676L341.696 294.96L329.355 295.263V285.649C329.355 285.649 323.938 277.239 323.938 280.242C323.938 283.245 317.317 286.251 317.317 286.251L308.891 277.838L313.706 273.033L321.532 270.628V257.41L315.511 251.401L304.073 258.61V247.194L297.15 240.284H290.23L295.044 225.566L280.598 220.761L276.386 224.967L263.142 214.755C263.142 214.755 261.94 220.461 257.425 220.461C252.91 220.461 253.51 231.575 253.51 231.575L248.696 235.179L243.881 229.772L239.063 230.973L236.658 238.182L227.026 231.575L220.705 225.266L213.182 230.973L205.959 223.763L204.153 230.973L201.744 244.79L210.773 258.607L212.579 270.621C212.579 270.621 215.587 281.435 212.579 281.435C209.57 281.435 196.326 283.84 196.326 283.84L183.686 294.654L171.045 299.459L163.821 288.043L162.016 294.65L161.412 299.455H142.754L132.822 289.542L137.037 285.336L132.519 278.425L114.461 283.832L91.588 288.039L76.5382 295.851L65.4034 306.964L59.6861 312.685L68.1121 320.496H59.6861L52.4628 310.284V298.269L46.1423 291.961L38.6157 302.476L36.2102 309.685L24.169 304.88L13.9371 302.476L15.5009 313.027L20.2937 316.834L19.0945 322.601L14.9555 326.952L17.6824 333.913L23.024 341.962L28.1455 347.074L26.0758 359.15L30.3486 368.111L42.5379 372.617V378.925L58.7905 390.64L66.4652 398.3V413.17L75.043 429.391H84.5236L85.4265 441.557H80.4605L77.9757 449.895L66.4615 461.387L56.5294 468.146L56.9809 489.774L47.9517 492.928L44.7915 504.643L51.5634 511.402V521.315L47.9517 529.426L35.7623 525.821L26.7331 528.525L13.6408 546.999L1 551.956V556.912L4.25059 564.997L8.76518 575.505L19.2896 582.635L20.4165 602.526L30.9444 621.664V629.544L33.5773 644.554L36.965 667.819L27.9396 670.446L21.926 680.204L16.2846 685.835L19.6687 695.968L23.0564 692.59L34.3321 697.096V706.854L38.4711 710.985L34.3321 714.738V725.245L44.8603 730.876L48.2442 747.389L60.654 759.771L56.5186 771.404L49.3711 782.661L52.3797 791.67V799.55L48.6198 803.302V815.309L55.0126 818.312H64.7895L69.6797 813.435H75.3174L80.5833 819.812L91.4868 815.684L99.7575 819.437L106.334 812.869L115.169 813.431L115.551 820.565L124.01 829.007V836.7L115.927 838.953V850.585L125.704 849.835L135.856 846.833L144.878 853.213L152.398 866.724L155.782 879.856L159.921 883.987L156.161 887.739V896.372L165.562 900.875H174.212L180.789 907.439L179.474 918.509L174.776 923.199V931.266L181.634 938.115L185.112 946.276L186.243 953.406L193.762 956.034L204.29 960.536V975.172L202.033 990.182V1007.07L200.151 1025.08L201.657 1055.1L216.129 1069.54L229.102 1068.6L235.119 1059.6L238.879 1048.34H248.277L268.206 1040.84L270.087 1031.08L277.607 1027.7L285.506 1035.58V1046.09L292.27 1055.47V1043.09L308.061 1032.21V1011.19L319.34 999.936L323.851 986.426L320.467 974.79L328.925 966.347L332.497 954.527L339.641 945.898L352.423 947.776L365.208 946.273L378.741 952.653L390.399 954.156V965.039L396.041 969.92V978.549L409.198 980.427L417.657 971.985V962.789H427.246L433.826 969.357L441.909 978.174V986.808L449.428 987.558L454.319 1001.07L462.214 1008.95L471.427 1018.14L469.361 1024.71L475.566 1030.9L478.383 1044.6L491.544 1049.48L500.945 1061.86L509.967 1064.87V1075.37L519.741 1078L530.268 1067.5L541.927 1057.74H553.582L559.036 1052.29L565.612 1058.86L574.634 1060.74L578.77 1056.61H590.804L595.694 1062.99H603.213L605.467 1053.99L620.506 1056.98L625.768 1051.73L636.676 1049.48L646.828 1053.99L659.61 1066.74L669.383 1062.24L680.29 1059.62L685.177 1052.86L693.447 1056.61L699.464 1050.6H706.233L712.625 1056.98L718.826 1050.8L736.498 1033.16L749.471 1035.22V1026.97L765.641 1020.96L777.296 1023.22L789.326 1015.71L788.575 1003.32L808.125 991.689L826.552 976.678L819.784 960.915V948.908L811.888 941.028L818.844 934.085L820.91 918.513L804.369 911.383H790.836L789.33 903.499L798.731 901.621L793.841 891.867L796.474 873.479L785.195 871.601L773.915 859.965L783.688 857.712L784.819 843.451L780.308 838.949L777.675 831.441L781.435 822.061L773.915 814.556L780.308 805.923L774.854 800.48V787.535L787.076 781.155L795.347 776.649L805.12 777.777L813.203 769.71L823.919 765.395L825.425 754.887L818.469 747.944L822.416 738.003L836.329 735.375L854.752 716.987L854 696.346L867.161 691.844V685.089L854.188 672.141L851.371 662.948L836.896 648.501L827.682 646.439L825.801 634.806L828.058 620.921L820.726 613.603L831.818 599.159V586.399L832.569 570.639L826.927 565.008L823.922 553.751L818.657 548.495L818.281 534.613L828.805 532.36L837.831 534.613L849.486 540.993L861.144 534.988L870.545 531.985L879.947 522.606L886.711 510.595L895.733 510.97L900.999 507.592L904.947 511.532L910.021 509.845V499.698L909.273 483.185L911.155 471.927L902.133 462.922L899.876 455.789L891.793 447.721L877.697 440.404L873.937 431.774L864.164 418.638V411.508L859.274 409.255L861.531 397.244L865.478 393.304L858.71 386.549L860.404 376.229L876.194 369.848V364.218L888.225 364.593L887.094 351.082L878.072 348.454L872.055 340.574L879.575 333.444H887.094V324.065L894.614 318.809V312.054L904.015 309.801L909.656 316.556L917.551 315.428L921.69 306.798L919.057 299.293L927.328 286.157L929.961 277.528L938.232 276.025V268.52L934.093 257.637L924.32 252.006L914.918 242.623V231.741L914.167 219.73L905.145 215.224L898.753 206.594V196.461L905.897 194.958L902.509 185.2L892.356 182.197L894.238 173.189L904.766 169.062V158.554L909.656 153.677H921.311L922.442 141.291H937.481L943.498 135.285L939.734 122.903L945 112.77L937.856 101.134H931.092L924.699 88.377L917.551 81.2433H907.778L895.368 85.3743L884.089 80.4935L872.059 78.619V64.7337L862.658 59.4816L857.771 47.4742L864.915 36.2167V23.8344L873.186 18.2039V6.19651L878.827 -8.06376L891.237 -17.4433L881.836 -33.2031L870.928 -37.3341L867.923 -44.8391L855.893 -46.3423L841.605 -51.2231L836.795 -58Z" fill="#0071B3" fill-opacity="0.16" stroke="white" stroke-width="2"/>
</svg>